<?xml-stylesheet type="text/css" href="/dist/common.css">
<?xml version="1.0" encoding="UTF-8"?>
<!DOCTYPE svg PUBLIC "-//W3C//DTD SVG 1.1//EN" "http://www.w3.org/Graphics/SVG/1.1/DTD/svg11.dtd">
<svg version="1.2" width="117.12mm" height="116.42mm" viewBox="0 0 11712 11642" preserveAspectRatio="xMidYMid" fill-rule="evenodd" stroke-width="28.222" stroke-linejoin="round" 
    xmlns="http://www.w3.org/2000/svg" 
    xmlns:ooo="http://xml.openoffice.org/svg/export" 
    xmlns:xlink="http://www.w3.org/1999/xlink" 
    xmlns:presentation="http://sun.com/xmlns/staroffice/presentation" 
    xmlns:smil="http://www.w3.org/2001/SMIL20/" 
    xmlns:anim="urn:oasis:names:tc:opendocument:xmlns:animation:1.0" xml:space="preserve">
    <defs class="ClipPathGroup">
        <clipPath id="presentation_clip_path" clipPathUnits="userSpaceOnUse">
            <rect x="0" y="0" width="11712" height="11642"/>
        </clipPath>
        <clipPath id="presentation_clip_path_shrink" clipPathUnits="userSpaceOnUse">
            <rect x="11" y="11" width="11689" height="11619"/>
        </clipPath>
    </defs>
    <defs class="TextShapeIndex">
        <g ooo:slide="id1" ooo:id-list="id3 id4 id5 id6 id7"/>
    </defs>
    <defs class="EmbeddedBulletChars">
        <g id="bullet-char-template-57356" transform="scale(0.00048828125,-0.00048828125)">
            <path d="M 580,1141 L 1163,571 580,0 -4,571 580,1141 Z"/>
        </g>
        <g id="bullet-char-template-57354" transform="scale(0.00048828125,-0.00048828125)">
            <path d="M 8,1128 L 1137,1128 1137,0 8,0 8,1128 Z"/>
        </g>
        <g id="bullet-char-template-10146" transform="scale(0.00048828125,-0.00048828125)">
            <path d="M 174,0 L 602,739 174,1481 1456,739 174,0 Z M 1358,739 L 309,1346 659,739 1358,739 Z"/>
        </g>
        <g id="bullet-char-template-10132" transform="scale(0.00048828125,-0.00048828125)">
            <path d="M 2015,739 L 1276,0 717,0 1260,543 174,543 174,936 1260,936 717,1481 1274,1481 2015,739 Z"/>
        </g>
        <g id="bullet-char-template-10007" transform="scale(0.00048828125,-0.00048828125)">
            <path d="M 0,-2 C -7,14 -16,27 -25,37 L 356,567 C 262,823 215,952 215,954 215,979 228,992 255,992 264,992 276,990 289,987 310,991 331,999 354,1012 L 381,999 492,748 772,1049 836,1024 860,1049 C 881,1039 901,1025 922,1006 886,937 835,863 770,784 769,783 710,716 594,584 L 774,223 C 774,196 753,168 711,139 L 727,119 C 717,90 699,76 672,76 641,76 570,178 457,381 L 164,-76 C 142,-110 111,-127 72,-127 30,-127 9,-110 8,-76 1,-67 -2,-52 -2,-32 -2,-23 -1,-13 0,-2 Z"/>
        </g>
        <g id="bullet-char-template-10004" transform="scale(0.00048828125,-0.00048828125)">
            <path d="M 285,-33 C 182,-33 111,30 74,156 52,228 41,333 41,471 41,549 55,616 82,672 116,743 169,778 240,778 293,778 328,747 346,684 L 369,508 C 377,444 397,411 428,410 L 1163,1116 C 1174,1127 1196,1133 1229,1133 1271,1133 1292,1118 1292,1087 L 1292,965 C 1292,929 1282,901 1262,881 L 442,47 C 390,-6 338,-33 285,-33 Z"/>
        </g>
        <g id="bullet-char-template-9679" transform="scale(0.00048828125,-0.00048828125)">
            <path d="M 813,0 C 632,0 489,54 383,161 276,268 223,411 223,592 223,773 276,916 383,1023 489,1130 632,1184 813,1184 992,1184 1136,1130 1245,1023 1353,916 1407,772 1407,592 1407,412 1353,268 1245,161 1136,54 992,0 813,0 Z"/>
        </g>
        <g id="bullet-char-template-8226" transform="scale(0.00048828125,-0.00048828125)">
            <path d="M 346,457 C 273,457 209,483 155,535 101,586 74,649 74,723 74,796 101,859 155,911 209,963 273,989 346,989 419,989 480,963 531,910 582,859 608,796 608,723 608,648 583,586 532,535 482,483 420,457 346,457 Z"/>
        </g>
        <g id="bullet-char-template-8211" transform="scale(0.00048828125,-0.00048828125)">
            <path d="M -4,459 L 1135,459 1135,606 -4,606 -4,459 Z"/>
        </g>
        <g id="bullet-char-template-61548" transform="scale(0.00048828125,-0.00048828125)">
            <path d="M 173,740 C 173,903 231,1043 346,1159 462,1274 601,1332 765,1332 928,1332 1067,1274 1183,1159 1299,1043 1357,903 1357,740 1357,577 1299,437 1183,322 1067,206 928,148 765,148 601,148 462,206 346,322 231,437 173,577 173,740 Z"/>
        </g>
    </defs>
    
    <defs class="TextEmbeddedBitmaps"/>
    <g>
        <g id="id2" class="Master_Slide">
            <g id="bg-id2" class="Background"/>
            <g id="bo-id2" class="BackgroundObjects"/>
        </g>
    </g>
    <a href="https://zen.yandex.ru/id/5b79640d6609b800a96da521" target="_blank">
        <g class="SlideGroup">
            <g>
                <g id="container-id1">
                    <g id="id1" class="Slide socialMediaIcon" clip-path="url(#presentation_clip_path)">
                        <g class="Page">
                            <g class="Group">
                                <g class="com.sun.star.drawing.ClosedBezierShape">
                                    <g id="id3">
                                        <rect class="BoundingBox" stroke="none" fill="none" x="47" y="11" width="11622" height="11621"/>
                                        <path class="backlayot" stroke="none" d="M 5857,11 L 5857,11 C 6927,11 7836,255 8762,789 9688,1324 10354,1990 10889,2916 11423,3842 11667,4751 11667,5821 L 11667,5821 11667,5821 C 11667,6891 11423,7800 10889,8726 10354,9652 9688,10318 8762,10853 7836,11387 6927,11631 5857,11631 4787,11631 3878,11387 2952,10853 2026,10318 1360,9652 825,8726 291,7800 47,6891 47,5821 47,4751 291,3842 825,2916 1360,1990 2026,1324 2952,789 3878,255 4787,11 5857,11 Z"/>
                                    </g>
                                </g>
                                <g class="com.sun.star.drawing.ClosedBezierShape">
                                    <g id="id4">
                                        <rect class="BoundingBox" stroke="none" fill="none" x="3748" y="16" width="4189" height="11598"/>
                                        <path class="backlayot" stroke="none" d="M 6078,16 C 6644,37 7190,139 7704,311 L 5158,2510 3748,2028 6078,16 Z M 6078,16 L 6078,16 Z M 5388,11613 C 4842,11570 4316,11450 3822,11266 L 6526,8931 7936,9413 5388,11613 Z"/>
                                    </g>
                                </g>
                                <g class="com.sun.star.drawing.PolyPolygonShape">
                                    <g id="id5">
                                        <rect class="BoundingBox" stroke="none" fill="none" x="3748" y="6669" width="4189" height="2743"/>
                                        <path class="mainlayot" stroke="none" d="M 3748,6669 L 7936,8100 7936,9411 3748,7980 3748,6669 Z"/>
                                    </g>
                                </g>
                                <g class="com.sun.star.drawing.PolyPolygonShape">
                                    <g id="id6">
                                        <rect class="BoundingBox" stroke="none" fill="none" x="3748" y="2028" width="4189" height="2743"/>
                                        <path class="mainlayot" stroke="none" d="M 3748,2028 L 7936,3459 7936,4770 3748,3339 3748,2028 Z"/>
                                    </g>
                                </g>
                                <g class="com.sun.star.drawing.PolyPolygonShape">
                                    <g id="id7">
                                        <rect class="BoundingBox" stroke="none" fill="none" x="3748" y="4282" width="4174" height="2870"/>
                                        <path class="mainlayot" stroke="none" d="M 3748,6669 L 6510,4282 7921,4763 5159,7151 3748,6669 Z"/>
                                    </g>
                                </g>
                            </g>
                        </g>
                    </g>
                </g>
            </g>
        </g>
    </a>
</svg>